<svg width="106" height="25" viewBox="0 0 106 25" fill="none" xmlns="http://www.w3.org/2000/svg">
<g id="Group">
<path id="Vector" d="M10.2482 4.55308C11.0383 5.05306 11.6615 5.77024 12.1177 6.70462C12.574 7.63972 12.8021 8.74392 12.8021 10.0194C12.8021 11.2803 12.574 12.3816 12.1177 13.3232C11.6615 14.2649 11.0383 14.9857 10.2482 15.4857C9.45818 15.9857 8.5639 16.2357 7.56392 16.2357C6.63611 16.2357 5.83948 16.0258 5.17332 15.6052C4.50643 15.1854 4.02102 14.6126 3.7171 13.8881V16.0834H0V0H3.7171V6.1507C4.02102 5.42623 4.50643 4.85409 5.17332 4.43355C5.83948 4.01373 6.63684 3.8031 7.56392 3.8031C8.56317 3.8031 9.45818 4.05309 10.2482 4.55308ZM4.44448 7.85692C3.94449 8.38606 3.6945 9.10688 3.6945 10.0194C3.6945 10.9181 3.94449 11.6352 4.44448 12.1717C4.94446 12.7081 5.58585 12.9756 6.36789 12.9756C7.16452 12.9756 7.8059 12.7147 8.29131 12.1935C8.77672 11.6717 9.01942 10.9472 9.01942 10.0201C9.01942 9.09303 8.77672 8.36857 8.29131 7.84671C7.8059 7.32486 7.16452 7.06467 6.36789 7.06467C5.58585 7.06321 4.94446 7.32778 4.44448 7.85692Z" fill="white"/>
<path id="Vector_2" d="M21.7343 4.43416C22.4004 4.8547 22.8931 5.42684 23.2123 6.15131V3.80371H26.9076V16.084H23.2123V13.8887C22.8938 14.6132 22.4012 15.1853 21.7343 15.6059C21.0674 16.0264 20.2707 16.2363 19.3437 16.2363C18.3437 16.2363 17.4487 15.9863 16.6593 15.4863C15.8693 14.9863 15.2461 14.2655 14.7899 13.3238C14.3336 12.3822 14.1055 11.2809 14.1055 10.02C14.1055 8.74526 14.3336 7.64034 14.7899 6.70523C15.2461 5.77086 15.8693 5.05368 16.6593 4.55369C17.4487 4.0537 18.3437 3.80371 19.3437 3.80371C20.2707 3.80371 21.0674 4.01362 21.7343 4.43416ZM18.6148 7.8466C18.1294 8.36845 17.8867 9.09292 17.8867 10.02C17.8867 10.9478 18.1287 11.6723 18.6148 12.1934C19.1002 12.7153 19.7416 12.9755 20.5382 12.9755C21.321 12.9755 21.9617 12.7072 22.4616 12.1715C22.9616 11.6351 23.2116 10.9187 23.2116 10.0193C23.2116 9.10677 22.9616 8.38594 22.4616 7.8568C21.9617 7.32839 21.3203 7.06382 20.5382 7.06382C19.7416 7.06382 19.1002 7.32475 18.6148 7.8466Z" fill="white"/>
<path id="Vector_3" d="M55.6016 16.0834L51.972 10.9319V16.0834H48.2549V0H51.9712V8.82409L55.7095 3.8031H60.0782L55.079 10.0194L60.0782 16.0834H55.6016Z" fill="white"/>
<path id="Vector_4" d="M67.496 4.43416C68.1629 4.8547 68.6548 5.42684 68.9741 6.15131V3.80371H72.6686V16.084H68.9741V13.8887C68.6548 14.6132 68.1629 15.1853 67.496 15.6059C66.8291 16.0264 66.0325 16.2363 65.1054 16.2363C64.1054 16.2363 63.2104 15.9863 62.4211 15.4863C61.631 14.9863 61.0086 14.2655 60.5516 13.3238C60.0953 12.3822 59.8672 11.2809 59.8672 10.02C59.8672 8.74526 60.0953 7.64034 60.5516 6.70523C61.0086 5.77086 61.631 5.05368 62.4211 4.55369C63.2104 4.0537 64.1054 3.80371 65.1054 3.80371C66.0325 3.80371 66.8291 4.01362 67.496 4.43416ZM64.3773 7.8466C63.8919 8.36845 63.6492 9.09292 63.6492 10.02C63.6492 10.9478 63.8919 11.6723 64.3773 12.1934C64.8627 12.7153 65.5033 12.9755 66.3007 12.9755C67.0835 12.9755 67.7241 12.7072 68.2241 12.1715C68.7241 11.6351 68.9741 10.9187 68.9741 10.0193C68.9741 9.10677 68.7241 8.38594 68.2241 7.8568C67.7241 7.32839 67.0827 7.06382 66.3007 7.06382C65.5033 7.06382 64.8627 7.32475 64.3773 7.8466Z" fill="white"/>
<path id="Vector_5" d="M83.8253 4.55369C84.7742 5.05368 85.5206 5.7745 86.0635 6.71616C86.6065 7.65783 86.8784 8.75911 86.8784 10.02C86.8784 11.2809 86.6065 12.3822 86.0635 13.3238C85.5206 14.2655 84.7735 14.9863 83.8253 15.4863C82.8763 15.9863 81.7998 16.2363 80.5972 16.2363C79.3946 16.2363 78.3152 15.9863 77.359 15.4863C76.4027 14.9863 75.6528 14.2655 75.1098 13.3238C74.5668 12.3822 74.2949 11.2809 74.2949 10.02C74.2949 8.75984 74.5668 7.65856 75.1098 6.71616C75.6528 5.7745 76.4027 5.05368 77.359 4.55369C78.3152 4.0537 79.3946 3.80371 80.5972 3.80371C81.7998 3.80371 82.8756 4.0537 83.8253 4.55369ZM78.8043 7.79194C78.3189 8.3065 78.0762 9.04919 78.0762 10.02C78.0762 10.9908 78.3181 11.7299 78.8043 12.2371C79.2897 12.7444 79.8873 12.9973 80.5972 12.9973C81.3071 12.9973 81.9011 12.7444 82.3792 12.2371C82.8574 11.7299 83.0964 10.9908 83.0964 10.02C83.0964 9.04992 82.8574 8.30723 82.3792 7.79194C81.9011 7.2781 81.3064 7.02082 80.5972 7.02082C79.8873 7.02082 79.2897 7.2781 78.8043 7.79194Z" fill="white"/>
<path id="Vector_6" d="M97.4044 4.55369C98.3533 5.05368 99.0996 5.7745 99.6426 6.71616C100.186 7.65783 100.457 8.75911 100.457 10.02C100.457 11.2809 100.186 12.3822 99.6426 13.3238C99.0996 14.2655 98.3526 14.9863 97.4044 15.4863C96.4554 15.9863 95.3789 16.2363 94.1763 16.2363C92.9737 16.2363 91.8943 15.9863 90.9381 15.4863C89.9818 14.9863 89.2319 14.2655 88.6889 13.3238C88.1459 12.3822 87.874 11.2809 87.874 10.02C87.874 8.75984 88.1459 7.65856 88.6889 6.71616C89.2319 5.7745 89.9818 5.05368 90.9381 4.55369C91.8943 4.0537 92.9737 3.80371 94.1763 3.80371C95.3789 3.80371 96.4547 4.0537 97.4044 4.55369ZM92.3834 7.79194C91.898 8.3065 91.6553 9.04919 91.6553 10.02C91.6553 10.9908 91.8972 11.7299 92.3834 12.2371C92.8688 12.7444 93.4664 12.9973 94.1763 12.9973C94.8862 12.9973 95.4802 12.7444 95.9583 12.2371C96.4365 11.7299 96.6755 10.9908 96.6755 10.02C96.6755 9.04992 96.4365 8.30723 95.9583 7.79194C95.4802 7.2781 94.8855 7.02082 94.1763 7.02082C93.4664 7.02082 92.8688 7.2781 92.3834 7.79194Z" fill="white"/>
<path id="Vector_7" d="M105.49 0V16.0834H101.773V0H105.49Z" fill="white"/>
<path id="Vector_8" d="M46.3007 16.0832C46.3007 15.7225 46.2738 9.98648 46.2205 9.64173C46.1003 8.86552 45.8452 8.13303 45.4531 7.45156C45.4093 7.37577 45.3642 7.30069 45.3175 7.22635C45.2235 7.07767 45.1229 6.93117 45.015 6.78759C43.5158 4.78546 41.4707 3.90065 38.9882 4.01872C37.1559 4.10545 35.6363 4.87438 34.4315 6.24387C34.3018 6.3911 34.1823 6.54707 34.0649 6.70669L32.7377 3.80735L28.5928 3.80371L31.9228 11.0295L31.7603 11.4033C30.9571 13.1635 30.1714 14.9309 29.3741 16.694C28.9222 17.694 28.7655 18.7246 28.9382 19.8178C29.4375 22.9752 32.8288 24.9234 35.82 23.755C38.5458 22.6902 39.8534 19.597 38.6858 16.9097C38.4788 16.4331 38.2696 15.9586 38.0582 15.4841C37.4242 14.0607 36.7755 12.6446 36.1421 11.2211C36.0926 11.1089 36.0532 10.9478 36.0962 10.8465C36.3294 10.297 36.5546 9.73867 36.8491 9.22119C37.2441 8.52734 37.7886 8.08566 38.4183 7.87502C38.7681 7.75841 39.1442 7.71249 39.5356 7.73436C39.6136 7.73873 39.693 7.74602 39.7725 7.75549C39.8519 7.76497 39.9321 7.77736 40.0123 7.79266C40.8548 7.95082 41.5028 8.31816 41.9408 8.86115C42.3781 9.40486 42.6055 10.1242 42.6069 10.9886C42.6106 13.595 42.6077 13.4769 42.6077 16.0832H46.3007ZM34.8193 20.078C34.3222 20.4461 33.6743 20.4512 33.1728 20.0904C32.6634 19.7238 32.4389 19.0649 32.6699 18.4782C32.909 17.874 33.1903 17.2866 33.4556 16.6926C33.6218 16.3194 33.7916 15.9484 33.9891 15.5126C34.4454 16.5344 34.8863 17.4877 35.2959 18.4542C35.5394 19.0292 35.3193 19.707 34.8193 20.078Z" fill="white"/>
</g>
</svg>
