<svg width="141" height="33" viewBox="0 0 141 33" fill="none" xmlns="http://www.w3.org/2000/svg">
<path d="M13.6564 6.08615C14.7092 6.75449 15.5396 7.71315 16.1476 8.96214C16.7556 10.2121 17.0596 11.6881 17.0596 13.393C17.0596 15.0785 16.7556 16.5506 16.1476 17.8093C15.5396 19.068 14.7092 20.0316 13.6564 20.6999C12.6036 21.3683 11.4119 21.7024 10.0794 21.7024C8.84302 21.7024 7.78147 21.4218 6.89377 20.8597C6.00509 20.2985 5.35826 19.5328 4.95326 18.5644V21.4988H0V0H4.95326V8.22171C5.35826 7.2533 6.00509 6.48851 6.89377 5.92637C7.78147 5.3652 8.84399 5.08364 10.0794 5.08364C11.4109 5.08364 12.6036 5.41781 13.6564 6.08615ZM5.92254 10.5024C5.25628 11.2097 4.92315 12.1733 4.92315 13.393C4.92315 14.5943 5.25628 15.5529 5.92254 16.27C6.5888 16.987 7.44348 17.3446 8.48561 17.3446C9.54716 17.3446 10.4018 16.9958 11.0487 16.2992C11.6955 15.6017 12.0189 14.6333 12.0189 13.394C12.0189 12.1548 11.6955 11.1864 11.0487 10.4888C10.4018 9.79123 9.54716 9.44342 8.48561 9.44342C7.44348 9.44147 6.5888 9.79512 5.92254 10.5024Z" fill="#141415"/>
<path d="M28.9629 5.92635C29.8507 6.48849 30.5072 7.25328 30.9326 8.22168V5.08362H35.8567V21.4988H30.9326V18.5643C30.5082 19.5327 29.8516 20.2975 28.9629 20.8597C28.0743 21.4218 27.0127 21.7024 25.7773 21.7024C24.4448 21.7024 23.2521 21.3682 22.2003 20.6999C21.1475 20.0316 20.3171 19.068 19.7091 17.8093C19.1011 16.5506 18.7971 15.0785 18.7971 13.393C18.7971 11.689 19.1011 10.2121 19.7091 8.96211C20.3171 7.71312 21.1475 6.75446 22.2003 6.08612C23.2521 5.41779 24.4448 5.08362 25.7773 5.08362C27.0127 5.08362 28.0743 5.3642 28.9629 5.92635ZM24.8061 10.4878C24.1593 11.1854 23.8358 12.1538 23.8358 13.393C23.8358 14.6332 24.1583 15.6016 24.8061 16.2982C25.4529 16.9958 26.3076 17.3436 27.3692 17.3436C28.4123 17.3436 29.266 16.9851 29.9322 16.269C30.5985 15.5519 30.9316 14.5943 30.9316 13.392C30.9316 12.1723 30.5985 11.2087 29.9322 10.5014C29.266 9.7951 28.4113 9.44145 27.3692 9.44145C26.3076 9.44145 25.4529 9.79023 24.8061 10.4878Z" fill="#141415"/>
<path d="M74.092 21.4988L69.2553 14.6128V21.4988H64.302V0H69.2543V11.7953L74.2357 5.08364H80.0572L73.3956 13.393L80.0572 21.4988H74.092Z" fill="#141415"/>
<path d="M89.9424 5.92635C90.8311 6.48849 91.4867 7.25328 91.9121 8.22168V5.08362H96.8352V21.4988H91.9121V18.5643C91.4867 19.5327 90.8311 20.2975 89.9424 20.8597C89.0538 21.4218 87.9922 21.7024 86.7568 21.7024C85.4243 21.7024 84.2316 21.3682 83.1798 20.6999C82.127 20.0316 81.2976 19.068 80.6886 17.8093C80.0806 16.5506 79.7766 15.0785 79.7766 13.393C79.7766 11.689 80.0806 10.2121 80.6886 8.96211C81.2976 7.71312 82.127 6.75446 83.1798 6.08612C84.2316 5.41779 85.4243 5.08362 86.7568 5.08362C87.9922 5.08362 89.0538 5.3642 89.9424 5.92635ZM85.7866 10.4878C85.1397 11.1854 84.8163 12.1538 84.8163 13.393C84.8163 14.6332 85.1397 15.6016 85.7866 16.2982C86.4334 16.9958 87.2871 17.3436 88.3496 17.3436C89.3927 17.3436 90.2464 16.9851 90.9127 16.269C91.579 15.5519 91.9121 14.5943 91.9121 13.392C91.9121 12.1723 91.579 11.2087 90.9127 10.5014C90.2464 9.7951 89.3918 9.44145 88.3496 9.44145C87.2871 9.44145 86.4334 9.79023 85.7866 10.4878Z" fill="#141415"/>
<path d="M111.702 6.08612C112.966 6.75446 113.961 7.71799 114.684 8.97673C115.408 10.2355 115.77 11.7076 115.77 13.393C115.77 15.0785 115.408 16.5506 114.684 17.8093C113.961 19.068 112.965 20.0316 111.702 20.6999C110.437 21.3682 109.003 21.7024 107.4 21.7024C105.798 21.7024 104.359 21.3682 103.085 20.6999C101.811 20.0316 100.811 19.068 100.088 17.8093C99.3642 16.5506 99.002 15.0785 99.002 13.393C99.002 11.7085 99.3642 10.2364 100.088 8.97673C100.811 7.71799 101.811 6.75446 103.085 6.08612C104.359 5.41779 105.798 5.08362 107.4 5.08362C109.003 5.08362 110.436 5.41779 111.702 6.08612ZM105.011 10.4147C104.364 11.1025 104.041 12.0953 104.041 13.393C104.041 14.6907 104.363 15.6786 105.011 16.3567C105.658 17.0348 106.454 17.3728 107.4 17.3728C108.346 17.3728 109.138 17.0348 109.775 16.3567C110.412 15.6786 110.73 14.6907 110.73 13.393C110.73 12.0963 110.412 11.1035 109.775 10.4147C109.138 9.72787 108.345 9.38396 107.4 9.38396C106.454 9.38396 105.658 9.72787 105.011 10.4147Z" fill="#141415"/>
<path d="M129.797 6.08612C131.061 6.75446 132.056 7.71799 132.779 8.97673C133.503 10.2355 133.865 11.7076 133.865 13.393C133.865 15.0785 133.503 16.5506 132.779 17.8093C132.056 19.068 131.06 20.0316 129.797 20.6999C128.532 21.3682 127.098 21.7024 125.495 21.7024C123.893 21.7024 122.454 21.3682 121.18 20.6999C119.906 20.0316 118.906 19.068 118.183 17.8093C117.459 16.5506 117.097 15.0785 117.097 13.393C117.097 11.7085 117.459 10.2364 118.183 8.97673C118.906 7.71799 119.906 6.75446 121.18 6.08612C122.454 5.41779 123.893 5.08362 125.495 5.08362C127.098 5.08362 128.531 5.41779 129.797 6.08612ZM123.106 10.4147C122.459 11.1025 122.136 12.0953 122.136 13.393C122.136 14.6907 122.458 15.6786 123.106 16.3567C123.753 17.0348 124.549 17.3728 125.495 17.3728C126.441 17.3728 127.233 17.0348 127.87 16.3567C128.507 15.6786 128.825 14.6907 128.825 13.393C128.825 12.0963 128.507 11.1035 127.87 10.4147C127.233 9.72787 126.44 9.38396 125.495 9.38396C124.549 9.38396 123.753 9.72787 123.106 10.4147Z" fill="#141415"/>
<path d="M140.571 0V21.4988H135.619V0H140.571Z" fill="#141415"/>
<path d="M61.6985 21.4991C61.6985 21.0169 61.6625 13.3495 61.5916 12.8887C61.4314 11.8511 61.0915 10.872 60.5689 9.96109C60.5107 9.85977 60.4505 9.75942 60.3883 9.66004C60.263 9.4613 60.129 9.26547 59.9852 9.07355C57.9874 6.39728 55.2622 5.21453 51.9542 5.37236C49.5125 5.4883 47.4875 6.51613 45.8821 8.34675C45.7092 8.54355 45.5499 8.75204 45.3935 8.9654L43.6249 5.08983L38.1016 5.08496L42.5391 14.7437L42.3225 15.2435C41.2522 17.5963 40.2052 19.9589 39.1427 22.3156C38.5406 23.6522 38.3317 25.0298 38.5619 26.4912C39.2272 30.7117 43.7463 33.3158 47.7322 31.7541C51.3646 30.3307 53.107 26.196 51.5511 22.6039C51.2753 21.9668 50.9965 21.3326 50.7149 20.6983C49.8699 18.7956 49.0055 16.9026 48.1615 14.9999C48.0955 14.8499 48.043 14.6346 48.1003 14.4992C48.4111 13.7646 48.7112 13.0183 49.1036 12.3266C49.63 11.3991 50.3555 10.8087 51.1947 10.5271C51.6609 10.3712 52.162 10.3099 52.6836 10.3391C52.7875 10.3449 52.8933 10.3547 52.9992 10.3674C53.1051 10.38 53.2119 10.3966 53.3187 10.417C54.4415 10.6284 55.3049 11.1195 55.8886 11.8453C56.4713 12.5721 56.7744 13.5337 56.7763 14.6891C56.7812 18.1731 56.7773 18.0152 56.7773 21.4991H61.6985ZM46.3988 26.839C45.7364 27.331 44.873 27.3378 44.2047 26.8556C43.5259 26.3655 43.2267 25.4848 43.5346 24.7005C43.8532 23.8929 44.2281 23.1076 44.5816 22.3136C44.803 21.8148 45.0293 21.3189 45.2925 20.7363C45.9005 22.1022 46.4881 23.3765 47.0339 24.6684C47.3583 25.4371 47.065 26.3431 46.3988 26.839Z" fill="#141415"/>
</svg>
